solid OpenSCAD_Model
  facet normal 0.587781 0.80902 -0
    outer loop
      vertex 36.9695 41.0588 -12
      vertex 27.625 47.8479 12
      vertex 36.9695 41.0588 12
    endloop
  endfacet
  facet normal 0.587781 0.80902 0
    outer loop
      vertex 27.625 47.8479 12
      vertex 36.9695 41.0588 -12
      vertex 27.625 47.8479 -12
    endloop
  endfacet
  facet normal 0.207906 0.978149 -0
    outer loop
      vertex 17.0732 52.5459 -12
      vertex 5.7752 54.9473 12
      vertex 17.0732 52.5459 12
    endloop
  endfacet
  facet normal 0.207906 0.978149 0
    outer loop
      vertex 5.7752 54.9473 12
      vertex 17.0732 52.5459 -12
      vertex 5.7752 54.9473 -12
    endloop
  endfacet
  facet normal 0.866027 0.499997 0
    outer loop
      vertex 46.7767 28.875 12
      vertex 44.6982 32.4751 -12
      vertex 44.6982 32.4751 12
    endloop
  endfacet
  facet normal 0.866027 0.499997 0
    outer loop
      vertex 44.6982 32.4751 -12
      vertex 46.7767 28.875 12
      vertex 46.7767 28.875 -12
    endloop
  endfacet
  facet normal 0 1 -0
    outer loop
      vertex 5.7752 54.9473 -12
      vertex -5.7752 54.9473 12
      vertex 5.7752 54.9473 12
    endloop
  endfacet
  facet normal 0 1 0
    outer loop
      vertex -5.7752 54.9473 12
      vertex 5.7752 54.9473 -12
      vertex -5.7752 54.9473 -12
    endloop
  endfacet
  facet normal -0.406739 0.913544 0
    outer loop
      vertex -17.0732 52.5459 -12
      vertex -27.625 47.8479 12
      vertex -17.0732 52.5459 12
    endloop
  endfacet
  facet normal -0.406739 0.913544 0
    outer loop
      vertex -27.625 47.8479 12
      vertex -17.0732 52.5459 -12
      vertex -27.625 47.8479 -12
    endloop
  endfacet
  facet normal -0 0 1
    outer loop
      vertex 46.7767 28.875 12
      vertex 70 26.375 12
      vertex 70 28.875 12
    endloop
  endfacet
  facet normal 0 0 1
    outer loop
      vertex 46.7767 28.875 12
      vertex 45.3492 26.375 12
      vertex 70 26.375 12
    endloop
  endfacet
  facet normal -0 0 1
    outer loop
      vertex 42.6756 31.0057 12
      vertex 46.7767 28.875 12
      vertex 44.6982 32.4751 12
    endloop
  endfacet
  facet normal 0 0 1
    outer loop
      vertex 46.7767 28.875 12
      vertex 42.6756 31.0057 12
      vertex 45.3492 26.375 12
    endloop
  endfacet
  facet normal 0 0 1
    outer loop
      vertex 36.9695 41.0588 12
      vertex 42.6756 31.0057 12
      vertex 44.6982 32.4751 12
    endloop
  endfacet
  facet normal 0 0 1
    outer loop
      vertex 36.9695 41.0588 12
      vertex 35.2966 39.2009 12
      vertex 42.6756 31.0057 12
    endloop
  endfacet
  facet normal 0 0 1
    outer loop
      vertex 27.625 47.8479 12
      vertex 35.2966 39.2009 12
      vertex 36.9695 41.0588 12
    endloop
  endfacet
  facet normal 0 0 1
    outer loop
      vertex 27.625 47.8479 12
      vertex 26.375 45.6828 12
      vertex 35.2966 39.2009 12
    endloop
  endfacet
  facet normal 0 0 1
    outer loop
      vertex 17.0732 52.5459 12
      vertex 26.375 45.6828 12
      vertex 27.625 47.8479 12
    endloop
  endfacet
  facet normal 0 0 1
    outer loop
      vertex 17.0732 52.5459 12
      vertex 16.3006 50.1682 12
      vertex 26.375 45.6828 12
    endloop
  endfacet
  facet normal 0 0 1
    outer loop
      vertex 5.7752 54.9473 12
      vertex 16.3006 50.1682 12
      vertex 17.0732 52.5459 12
    endloop
  endfacet
  facet normal 0 0 1
    outer loop
      vertex 5.7752 54.9473 12
      vertex 5.51388 52.461 12
      vertex 16.3006 50.1682 12
    endloop
  endfacet
  facet normal 0 0 1
    outer loop
      vertex 5.7752 54.9473 12
      vertex -5.51388 52.461 12
      vertex 5.51388 52.461 12
    endloop
  endfacet
  facet normal -0 0 1
    outer loop
      vertex -5.7752 54.9473 12
      vertex -5.51388 52.461 12
      vertex 5.7752 54.9473 12
    endloop
  endfacet
  facet normal 0 0 1
    outer loop
      vertex -5.7752 54.9473 12
      vertex -16.3006 50.1682 12
      vertex -5.51388 52.461 12
    endloop
  endfacet
  facet normal -0 0 1
    outer loop
      vertex -17.0732 52.5459 12
      vertex -16.3006 50.1682 12
      vertex -5.7752 54.9473 12
    endloop
  endfacet
  facet normal 0 0 1
    outer loop
      vertex -17.0732 52.5459 12
      vertex -26.375 45.6828 12
      vertex -16.3006 50.1682 12
    endloop
  endfacet
  facet normal -0 0 1
    outer loop
      vertex -27.625 47.8479 12
      vertex -26.375 45.6828 12
      vertex -17.0732 52.5459 12
    endloop
  endfacet
  facet normal 0 0 1
    outer loop
      vertex -27.625 47.8479 12
      vertex -35.2966 39.2009 12
      vertex -26.375 45.6828 12
    endloop
  endfacet
  facet normal -0 0 1
    outer loop
      vertex -36.9695 41.0588 12
      vertex -35.2966 39.2009 12
      vertex -27.625 47.8479 12
    endloop
  endfacet
  facet normal 0 0 1
    outer loop
      vertex -36.9695 41.0588 12
      vertex -42.6756 31.0057 12
      vertex -35.2966 39.2009 12
    endloop
  endfacet
  facet normal -0 0 1
    outer loop
      vertex -44.6982 32.4751 12
      vertex -42.6756 31.0057 12
      vertex -36.9695 41.0588 12
    endloop
  endfacet
  facet normal 0 0 1
    outer loop
      vertex -46.7767 28.875 12
      vertex -42.6756 31.0057 12
      vertex -44.6982 32.4751 12
    endloop
  endfacet
  facet normal 0 0 1
    outer loop
      vertex -42.6756 31.0057 12
      vertex -46.7767 28.875 12
      vertex -45.3492 26.375 12
    endloop
  endfacet
  facet normal 0 0 1
    outer loop
      vertex -70 26.375 12
      vertex -46.7767 28.875 12
      vertex -70 28.875 12
    endloop
  endfacet
  facet normal 0 0 1
    outer loop
      vertex -46.7767 28.875 12
      vertex -70 26.375 12
      vertex -45.3492 26.375 12
    endloop
  endfacet
  facet normal 0 0 -1
    outer loop
      vertex 70 26.375 -12
      vertex 46.7767 28.875 -12
      vertex 70 28.875 -12
    endloop
  endfacet
  facet normal 0 0 -1
    outer loop
      vertex 45.3492 26.375 -12
      vertex 46.7767 28.875 -12
      vertex 70 26.375 -12
    endloop
  endfacet
  facet normal 0 0 -1
    outer loop
      vertex 42.6756 31.0057 -12
      vertex 46.7767 28.875 -12
      vertex 45.3492 26.375 -12
    endloop
  endfacet
  facet normal 0 0 -1
    outer loop
      vertex 46.7767 28.875 -12
      vertex 42.6756 31.0057 -12
      vertex 44.6982 32.4751 -12
    endloop
  endfacet
  facet normal 0 0 -1
    outer loop
      vertex 42.6756 31.0057 -12
      vertex 36.9695 41.0588 -12
      vertex 44.6982 32.4751 -12
    endloop
  endfacet
  facet normal 0 0 -1
    outer loop
      vertex 35.2966 39.2009 -12
      vertex 36.9695 41.0588 -12
      vertex 42.6756 31.0057 -12
    endloop
  endfacet
  facet normal 0 0 -1
    outer loop
      vertex 35.2966 39.2009 -12
      vertex 27.625 47.8479 -12
      vertex 36.9695 41.0588 -12
    endloop
  endfacet
  facet normal 0 0 -1
    outer loop
      vertex 26.375 45.6828 -12
      vertex 27.625 47.8479 -12
      vertex 35.2966 39.2009 -12
    endloop
  endfacet
  facet normal 0 0 -1
    outer loop
      vertex 26.375 45.6828 -12
      vertex 17.0732 52.5459 -12
      vertex 27.625 47.8479 -12
    endloop
  endfacet
  facet normal 0 0 -1
    outer loop
      vertex 16.3006 50.1682 -12
      vertex 17.0732 52.5459 -12
      vertex 26.375 45.6828 -12
    endloop
  endfacet
  facet normal 0 0 -1
    outer loop
      vertex 16.3006 50.1682 -12
      vertex 5.7752 54.9473 -12
      vertex 17.0732 52.5459 -12
    endloop
  endfacet
  facet normal 0 0 -1
    outer loop
      vertex 5.51388 52.461 -12
      vertex 5.7752 54.9473 -12
      vertex 16.3006 50.1682 -12
    endloop
  endfacet
  facet normal 0 0 -1
    outer loop
      vertex -5.51388 52.461 -12
      vertex 5.7752 54.9473 -12
      vertex 5.51388 52.461 -12
    endloop
  endfacet
  facet normal 0 0 -1
    outer loop
      vertex -5.51388 52.461 -12
      vertex -5.7752 54.9473 -12
      vertex 5.7752 54.9473 -12
    endloop
  endfacet
  facet normal 0 0 -1
    outer loop
      vertex -16.3006 50.1682 -12
      vertex -5.7752 54.9473 -12
      vertex -5.51388 52.461 -12
    endloop
  endfacet
  facet normal 0 0 -1
    outer loop
      vertex -16.3006 50.1682 -12
      vertex -17.0732 52.5459 -12
      vertex -5.7752 54.9473 -12
    endloop
  endfacet
  facet normal 0 0 -1
    outer loop
      vertex -26.375 45.6828 -12
      vertex -17.0732 52.5459 -12
      vertex -16.3006 50.1682 -12
    endloop
  endfacet
  facet normal 0 0 -1
    outer loop
      vertex -26.375 45.6828 -12
      vertex -27.625 47.8479 -12
      vertex -17.0732 52.5459 -12
    endloop
  endfacet
  facet normal 0 0 -1
    outer loop
      vertex -35.2966 39.2009 -12
      vertex -27.625 47.8479 -12
      vertex -26.375 45.6828 -12
    endloop
  endfacet
  facet normal 0 0 -1
    outer loop
      vertex -35.2966 39.2009 -12
      vertex -36.9695 41.0588 -12
      vertex -27.625 47.8479 -12
    endloop
  endfacet
  facet normal 0 0 -1
    outer loop
      vertex -42.6756 31.0057 -12
      vertex -36.9695 41.0588 -12
      vertex -35.2966 39.2009 -12
    endloop
  endfacet
  facet normal 0 0 -1
    outer loop
      vertex -42.6756 31.0057 -12
      vertex -44.6982 32.4751 -12
      vertex -36.9695 41.0588 -12
    endloop
  endfacet
  facet normal 0 0 -1
    outer loop
      vertex -46.7767 28.875 -12
      vertex -42.6756 31.0057 -12
      vertex -45.3492 26.375 -12
    endloop
  endfacet
  facet normal -0 0 -1
    outer loop
      vertex -42.6756 31.0057 -12
      vertex -46.7767 28.875 -12
      vertex -44.6982 32.4751 -12
    endloop
  endfacet
  facet normal 0 0 -1
    outer loop
      vertex -70 26.375 -12
      vertex -46.7767 28.875 -12
      vertex -45.3492 26.375 -12
    endloop
  endfacet
  facet normal -0 0 -1
    outer loop
      vertex -46.7767 28.875 -12
      vertex -70 26.375 -12
      vertex -70 28.875 -12
    endloop
  endfacet
  facet normal 0.406739 0.913544 -0
    outer loop
      vertex 27.625 47.8479 -12
      vertex 17.0732 52.5459 12
      vertex 27.625 47.8479 12
    endloop
  endfacet
  facet normal 0.406739 0.913544 0
    outer loop
      vertex 17.0732 52.5459 12
      vertex 27.625 47.8479 -12
      vertex 17.0732 52.5459 -12
    endloop
  endfacet
  facet normal -0.866027 0.499997 0
    outer loop
      vertex -46.7767 28.875 -12
      vertex -44.6982 32.4751 12
      vertex -44.6982 32.4751 -12
    endloop
  endfacet
  facet normal -0.866027 0.499997 0
    outer loop
      vertex -44.6982 32.4751 12
      vertex -46.7767 28.875 -12
      vertex -46.7767 28.875 12
    endloop
  endfacet
  facet normal 0.743149 0.669126 0
    outer loop
      vertex 44.6982 32.4751 12
      vertex 36.9695 41.0588 -12
      vertex 36.9695 41.0588 12
    endloop
  endfacet
  facet normal 0.743149 0.669126 0
    outer loop
      vertex 36.9695 41.0588 -12
      vertex 44.6982 32.4751 12
      vertex 44.6982 32.4751 -12
    endloop
  endfacet
  facet normal -0.207906 0.978149 0
    outer loop
      vertex -5.7752 54.9473 -12
      vertex -17.0732 52.5459 12
      vertex -5.7752 54.9473 12
    endloop
  endfacet
  facet normal -0.207906 0.978149 0
    outer loop
      vertex -17.0732 52.5459 12
      vertex -5.7752 54.9473 -12
      vertex -17.0732 52.5459 -12
    endloop
  endfacet
  facet normal -0.743149 0.669126 0
    outer loop
      vertex -44.6982 32.4751 -12
      vertex -36.9695 41.0588 12
      vertex -36.9695 41.0588 -12
    endloop
  endfacet
  facet normal -0.743149 0.669126 0
    outer loop
      vertex -36.9695 41.0588 12
      vertex -44.6982 32.4751 -12
      vertex -44.6982 32.4751 12
    endloop
  endfacet
  facet normal -0.587781 0.80902 0
    outer loop
      vertex -27.625 47.8479 -12
      vertex -36.9695 41.0588 12
      vertex -27.625 47.8479 12
    endloop
  endfacet
  facet normal -0.587781 0.80902 0
    outer loop
      vertex -36.9695 41.0588 12
      vertex -27.625 47.8479 -12
      vertex -36.9695 41.0588 -12
    endloop
  endfacet
  facet normal 1 -0 0
    outer loop
      vertex 70 26.375 12
      vertex 70 28.875 -12
      vertex 70 28.875 12
    endloop
  endfacet
  facet normal 1 0 0
    outer loop
      vertex 70 28.875 -12
      vertex 70 26.375 12
      vertex 70 26.375 -12
    endloop
  endfacet
  facet normal -1 0 0
    outer loop
      vertex -70 26.375 -12
      vertex -70 28.875 12
      vertex -70 28.875 -12
    endloop
  endfacet
  facet normal -1 -0 0
    outer loop
      vertex -70 28.875 12
      vertex -70 26.375 -12
      vertex -70 26.375 12
    endloop
  endfacet
  facet normal 0 1 0
    outer loop
      vertex -46.7767 28.875 12
      vertex -59.6603 28.875 3.2322
      vertex -70 28.875 12
    endloop
  endfacet
  facet normal 0 1 0
    outer loop
      vertex -46.7767 28.875 12
      vertex -58.9957 28.875 3.09093
      vertex -59.6603 28.875 3.2322
    endloop
  endfacet
  facet normal 0 1 0
    outer loop
      vertex -46.7767 28.875 12
      vertex -58.375 28.875 2.81458
      vertex -58.9957 28.875 3.09093
    endloop
  endfacet
  facet normal 0 1 0
    outer loop
      vertex -46.7767 28.875 12
      vertex -57.8253 28.875 2.41522
      vertex -58.375 28.875 2.81458
    endloop
  endfacet
  facet normal 0 1 0
    outer loop
      vertex -46.7767 28.875 12
      vertex -57.3707 28.875 1.9103
      vertex -57.8253 28.875 2.41522
    endloop
  endfacet
  facet normal 0 1 0
    outer loop
      vertex -46.7767 28.875 12
      vertex -57.031 28.875 1.32189
      vertex -57.3707 28.875 1.9103
    endloop
  endfacet
  facet normal 0 1 0
    outer loop
      vertex -46.7767 28.875 12
      vertex -56.821 28.875 0.675713
      vertex -57.031 28.875 1.32189
    endloop
  endfacet
  facet normal 0 1 0
    outer loop
      vertex -46.7767 28.875 12
      vertex -56.75 28.875 0
      vertex -56.821 28.875 0.675713
    endloop
  endfacet
  facet normal 0 1 -0
    outer loop
      vertex -46.7767 28.875 -12
      vertex -56.75 28.875 0
      vertex -46.7767 28.875 12
    endloop
  endfacet
  facet normal 0 1 0
    outer loop
      vertex -56.75 28.875 0
      vertex -46.7767 28.875 -12
      vertex -56.821 28.875 -0.675713
    endloop
  endfacet
  facet normal 0 1 0
    outer loop
      vertex -56.821 28.875 -0.675713
      vertex -46.7767 28.875 -12
      vertex -57.031 28.875 -1.32189
    endloop
  endfacet
  facet normal 0 1 0
    outer loop
      vertex -70 28.875 -12
      vertex -59.6603 28.875 -3.2322
      vertex -46.7767 28.875 -12
    endloop
  endfacet
  facet normal 0 1 0
    outer loop
      vertex -58.9957 28.875 -3.09093
      vertex -46.7767 28.875 -12
      vertex -59.6603 28.875 -3.2322
    endloop
  endfacet
  facet normal 0 1 0
    outer loop
      vertex -58.375 28.875 -2.81458
      vertex -46.7767 28.875 -12
      vertex -58.9957 28.875 -3.09093
    endloop
  endfacet
  facet normal 0 1 0
    outer loop
      vertex -57.8253 28.875 -2.41522
      vertex -46.7767 28.875 -12
      vertex -58.375 28.875 -2.81458
    endloop
  endfacet
  facet normal 0 1 0
    outer loop
      vertex -57.3707 28.875 -1.9103
      vertex -46.7767 28.875 -12
      vertex -57.8253 28.875 -2.41522
    endloop
  endfacet
  facet normal 0 1 0
    outer loop
      vertex -57.031 28.875 -1.32189
      vertex -46.7767 28.875 -12
      vertex -57.3707 28.875 -1.9103
    endloop
  endfacet
  facet normal 0 1 -0
    outer loop
      vertex -60.3397 28.875 3.2322
      vertex -70 28.875 12
      vertex -59.6603 28.875 3.2322
    endloop
  endfacet
  facet normal 0 1 -0
    outer loop
      vertex -61.0043 28.875 3.09093
      vertex -70 28.875 12
      vertex -60.3397 28.875 3.2322
    endloop
  endfacet
  facet normal 0 1 -0
    outer loop
      vertex -61.625 28.875 2.81458
      vertex -70 28.875 12
      vertex -61.0043 28.875 3.09093
    endloop
  endfacet
  facet normal 0 1 -0
    outer loop
      vertex -62.1747 28.875 2.41522
      vertex -70 28.875 12
      vertex -61.625 28.875 2.81458
    endloop
  endfacet
  facet normal 0 1 -0
    outer loop
      vertex -62.6293 28.875 1.9103
      vertex -70 28.875 12
      vertex -62.1747 28.875 2.41522
    endloop
  endfacet
  facet normal 0 1 -0
    outer loop
      vertex -62.969 28.875 1.32189
      vertex -70 28.875 12
      vertex -62.6293 28.875 1.9103
    endloop
  endfacet
  facet normal 0 1 -0
    outer loop
      vertex -63.179 28.875 0.675713
      vertex -70 28.875 12
      vertex -62.969 28.875 1.32189
    endloop
  endfacet
  facet normal 0 1 -0
    outer loop
      vertex -63.25 28.875 0
      vertex -70 28.875 12
      vertex -63.179 28.875 0.675713
    endloop
  endfacet
  facet normal 0 1 0
    outer loop
      vertex -70 28.875 -12
      vertex -63.25 28.875 0
      vertex -63.179 28.875 -0.675713
    endloop
  endfacet
  facet normal 0 1 0
    outer loop
      vertex -70 28.875 -12
      vertex -63.179 28.875 -0.675713
      vertex -62.969 28.875 -1.32189
    endloop
  endfacet
  facet normal 0 1 0
    outer loop
      vertex -59.6603 28.875 -3.2322
      vertex -70 28.875 -12
      vertex -60.3397 28.875 -3.2322
    endloop
  endfacet
  facet normal 0 1 0
    outer loop
      vertex -60.3397 28.875 -3.2322
      vertex -70 28.875 -12
      vertex -61.0043 28.875 -3.09093
    endloop
  endfacet
  facet normal 0 1 0
    outer loop
      vertex -63.25 28.875 0
      vertex -70 28.875 -12
      vertex -70 28.875 12
    endloop
  endfacet
  facet normal 0 1 0
    outer loop
      vertex -62.6293 28.875 -1.9103
      vertex -70 28.875 -12
      vertex -62.969 28.875 -1.32189
    endloop
  endfacet
  facet normal 0 1 0
    outer loop
      vertex -62.1747 28.875 -2.41522
      vertex -70 28.875 -12
      vertex -62.6293 28.875 -1.9103
    endloop
  endfacet
  facet normal 0 1 0
    outer loop
      vertex -61.625 28.875 -2.81458
      vertex -70 28.875 -12
      vertex -62.1747 28.875 -2.41522
    endloop
  endfacet
  facet normal 0 1 0
    outer loop
      vertex -61.0043 28.875 -3.09093
      vertex -70 28.875 -12
      vertex -61.625 28.875 -2.81458
    endloop
  endfacet
  facet normal 0 1 0
    outer loop
      vertex 59.6603 28.875 3.2322
      vertex 70 28.875 12
      vertex 60.3397 28.875 3.2322
    endloop
  endfacet
  facet normal 0 1 0
    outer loop
      vertex 70 28.875 12
      vertex 61.0043 28.875 3.09093
      vertex 60.3397 28.875 3.2322
    endloop
  endfacet
  facet normal 0 1 0
    outer loop
      vertex 70 28.875 12
      vertex 61.625 28.875 2.81458
      vertex 61.0043 28.875 3.09093
    endloop
  endfacet
  facet normal 0 1 0
    outer loop
      vertex 70 28.875 12
      vertex 62.1747 28.875 2.41522
      vertex 61.625 28.875 2.81458
    endloop
  endfacet
  facet normal 0 1 0
    outer loop
      vertex 70 28.875 12
      vertex 62.6293 28.875 1.9103
      vertex 62.1747 28.875 2.41522
    endloop
  endfacet
  facet normal 0 1 0
    outer loop
      vertex 70 28.875 12
      vertex 62.969 28.875 1.32189
      vertex 62.6293 28.875 1.9103
    endloop
  endfacet
  facet normal 0 1 0
    outer loop
      vertex 70 28.875 12
      vertex 63.179 28.875 0.675713
      vertex 62.969 28.875 1.32189
    endloop
  endfacet
  facet normal 0 1 0
    outer loop
      vertex 70 28.875 12
      vertex 63.25 28.875 0
      vertex 63.179 28.875 0.675713
    endloop
  endfacet
  facet normal 0 1 -0
    outer loop
      vertex 70 28.875 -12
      vertex 63.25 28.875 0
      vertex 70 28.875 12
    endloop
  endfacet
  facet normal 0 1 0
    outer loop
      vertex 63.25 28.875 0
      vertex 70 28.875 -12
      vertex 63.179 28.875 -0.675713
    endloop
  endfacet
  facet normal 0 1 0
    outer loop
      vertex 60.3397 28.875 -3.2322
      vertex 70 28.875 -12
      vertex 59.6603 28.875 -3.2322
    endloop
  endfacet
  facet normal 0 1 0
    outer loop
      vertex 61.0043 28.875 -3.09093
      vertex 70 28.875 -12
      vertex 60.3397 28.875 -3.2322
    endloop
  endfacet
  facet normal 0 1 0
    outer loop
      vertex 61.625 28.875 -2.81458
      vertex 70 28.875 -12
      vertex 61.0043 28.875 -3.09093
    endloop
  endfacet
  facet normal 0 1 0
    outer loop
      vertex 62.1747 28.875 -2.41522
      vertex 70 28.875 -12
      vertex 61.625 28.875 -2.81458
    endloop
  endfacet
  facet normal 0 1 0
    outer loop
      vertex 62.6293 28.875 -1.9103
      vertex 70 28.875 -12
      vertex 62.1747 28.875 -2.41522
    endloop
  endfacet
  facet normal 0 1 0
    outer loop
      vertex 62.969 28.875 -1.32189
      vertex 70 28.875 -12
      vertex 62.6293 28.875 -1.9103
    endloop
  endfacet
  facet normal 0 1 0
    outer loop
      vertex 63.179 28.875 -0.675713
      vertex 70 28.875 -12
      vertex 62.969 28.875 -1.32189
    endloop
  endfacet
  facet normal 0 1 0
    outer loop
      vertex 70 28.875 12
      vertex 59.6603 28.875 3.2322
      vertex 46.7767 28.875 12
    endloop
  endfacet
  facet normal 0 1 -0
    outer loop
      vertex 58.9957 28.875 3.09093
      vertex 46.7767 28.875 12
      vertex 59.6603 28.875 3.2322
    endloop
  endfacet
  facet normal 0 1 -0
    outer loop
      vertex 58.375 28.875 2.81458
      vertex 46.7767 28.875 12
      vertex 58.9957 28.875 3.09093
    endloop
  endfacet
  facet normal 0 1 -0
    outer loop
      vertex 57.8253 28.875 2.41522
      vertex 46.7767 28.875 12
      vertex 58.375 28.875 2.81458
    endloop
  endfacet
  facet normal 0 1 -0
    outer loop
      vertex 57.3707 28.875 1.9103
      vertex 46.7767 28.875 12
      vertex 57.8253 28.875 2.41522
    endloop
  endfacet
  facet normal 0 1 -0
    outer loop
      vertex 57.031 28.875 1.32189
      vertex 46.7767 28.875 12
      vertex 57.3707 28.875 1.9103
    endloop
  endfacet
  facet normal 0 1 -0
    outer loop
      vertex 56.821 28.875 0.675713
      vertex 46.7767 28.875 12
      vertex 57.031 28.875 1.32189
    endloop
  endfacet
  facet normal 0 1 -0
    outer loop
      vertex 56.75 28.875 0
      vertex 46.7767 28.875 12
      vertex 56.821 28.875 0.675713
    endloop
  endfacet
  facet normal 0 1 0
    outer loop
      vertex 46.7767 28.875 -12
      vertex 56.75 28.875 0
      vertex 56.821 28.875 -0.675713
    endloop
  endfacet
  facet normal 0 1 0
    outer loop
      vertex 46.7767 28.875 -12
      vertex 56.821 28.875 -0.675713
      vertex 57.031 28.875 -1.32189
    endloop
  endfacet
  facet normal 0 1 0
    outer loop
      vertex 46.7767 28.875 -12
      vertex 57.031 28.875 -1.32189
      vertex 57.3707 28.875 -1.9103
    endloop
  endfacet
  facet normal 0 1 0
    outer loop
      vertex 46.7767 28.875 -12
      vertex 59.6603 28.875 -3.2322
      vertex 70 28.875 -12
    endloop
  endfacet
  facet normal 0 1 0
    outer loop
      vertex 59.6603 28.875 -3.2322
      vertex 46.7767 28.875 -12
      vertex 58.9957 28.875 -3.09093
    endloop
  endfacet
  facet normal 0 1 0
    outer loop
      vertex 58.9957 28.875 -3.09093
      vertex 46.7767 28.875 -12
      vertex 58.375 28.875 -2.81458
    endloop
  endfacet
  facet normal 0 1 0
    outer loop
      vertex 56.75 28.875 0
      vertex 46.7767 28.875 -12
      vertex 46.7767 28.875 12
    endloop
  endfacet
  facet normal 0 1 0
    outer loop
      vertex 57.8253 28.875 -2.41522
      vertex 46.7767 28.875 -12
      vertex 57.3707 28.875 -1.9103
    endloop
  endfacet
  facet normal 0 1 0
    outer loop
      vertex 58.375 28.875 -2.81458
      vertex 46.7767 28.875 -12
      vertex 57.8253 28.875 -2.41522
    endloop
  endfacet
  facet normal 0 -1 0
    outer loop
      vertex -59.6603 26.375 3.2322
      vertex -70 26.375 12
      vertex -60.3397 26.375 3.2322
    endloop
  endfacet
  facet normal 0 -1 0
    outer loop
      vertex -70 26.375 12
      vertex -61.0043 26.375 3.09093
      vertex -60.3397 26.375 3.2322
    endloop
  endfacet
  facet normal 0 -1 0
    outer loop
      vertex -70 26.375 12
      vertex -61.625 26.375 2.81458
      vertex -61.0043 26.375 3.09093
    endloop
  endfacet
  facet normal 0 -1 0
    outer loop
      vertex -70 26.375 12
      vertex -62.1747 26.375 2.41522
      vertex -61.625 26.375 2.81458
    endloop
  endfacet
  facet normal 0 -1 0
    outer loop
      vertex -70 26.375 12
      vertex -62.6293 26.375 1.9103
      vertex -62.1747 26.375 2.41522
    endloop
  endfacet
  facet normal 0 -1 0
    outer loop
      vertex -70 26.375 12
      vertex -62.969 26.375 1.32189
      vertex -62.6293 26.375 1.9103
    endloop
  endfacet
  facet normal 0 -1 0
    outer loop
      vertex -70 26.375 12
      vertex -63.179 26.375 0.675713
      vertex -62.969 26.375 1.32189
    endloop
  endfacet
  facet normal 0 -1 0
    outer loop
      vertex -70 26.375 12
      vertex -63.25 26.375 0
      vertex -63.179 26.375 0.675713
    endloop
  endfacet
  facet normal 0 -1 0
    outer loop
      vertex -70 26.375 -12
      vertex -63.25 26.375 0
      vertex -70 26.375 12
    endloop
  endfacet
  facet normal 0 -1 -0
    outer loop
      vertex -63.25 26.375 0
      vertex -70 26.375 -12
      vertex -63.179 26.375 -0.675713
    endloop
  endfacet
  facet normal 0 -1 -0
    outer loop
      vertex -60.3397 26.375 -3.2322
      vertex -70 26.375 -12
      vertex -59.6603 26.375 -3.2322
    endloop
  endfacet
  facet normal 0 -1 -0
    outer loop
      vertex -61.0043 26.375 -3.09093
      vertex -70 26.375 -12
      vertex -60.3397 26.375 -3.2322
    endloop
  endfacet
  facet normal 0 -1 -0
    outer loop
      vertex -61.625 26.375 -2.81458
      vertex -70 26.375 -12
      vertex -61.0043 26.375 -3.09093
    endloop
  endfacet
  facet normal 0 -1 -0
    outer loop
      vertex -62.1747 26.375 -2.41522
      vertex -70 26.375 -12
      vertex -61.625 26.375 -2.81458
    endloop
  endfacet
  facet normal 0 -1 -0
    outer loop
      vertex -62.6293 26.375 -1.9103
      vertex -70 26.375 -12
      vertex -62.1747 26.375 -2.41522
    endloop
  endfacet
  facet normal 0 -1 -0
    outer loop
      vertex -62.969 26.375 -1.32189
      vertex -70 26.375 -12
      vertex -62.6293 26.375 -1.9103
    endloop
  endfacet
  facet normal 0 -1 -0
    outer loop
      vertex -63.179 26.375 -0.675713
      vertex -70 26.375 -12
      vertex -62.969 26.375 -1.32189
    endloop
  endfacet
  facet normal 0 -1 0
    outer loop
      vertex -70 26.375 12
      vertex -59.6603 26.375 3.2322
      vertex -45.3492 26.375 12
    endloop
  endfacet
  facet normal 0 -1 0
    outer loop
      vertex -58.9957 26.375 3.09093
      vertex -45.3492 26.375 12
      vertex -59.6603 26.375 3.2322
    endloop
  endfacet
  facet normal 0 -1 0
    outer loop
      vertex -58.375 26.375 2.81458
      vertex -45.3492 26.375 12
      vertex -58.9957 26.375 3.09093
    endloop
  endfacet
  facet normal 0 -1 0
    outer loop
      vertex -57.8253 26.375 2.41522
      vertex -45.3492 26.375 12
      vertex -58.375 26.375 2.81458
    endloop
  endfacet
  facet normal 0 -1 0
    outer loop
      vertex -57.3707 26.375 1.9103
      vertex -45.3492 26.375 12
      vertex -57.8253 26.375 2.41522
    endloop
  endfacet
  facet normal 0 -1 0
    outer loop
      vertex -57.031 26.375 1.32189
      vertex -45.3492 26.375 12
      vertex -57.3707 26.375 1.9103
    endloop
  endfacet
  facet normal 0 -1 0
    outer loop
      vertex -56.821 26.375 0.675713
      vertex -45.3492 26.375 12
      vertex -57.031 26.375 1.32189
    endloop
  endfacet
  facet normal 0 -1 0
    outer loop
      vertex -56.75 26.375 0
      vertex -45.3492 26.375 12
      vertex -56.821 26.375 0.675713
    endloop
  endfacet
  facet normal 0 -1 0
    outer loop
      vertex -45.3492 26.375 -12
      vertex -56.75 26.375 0
      vertex -56.821 26.375 -0.675713
    endloop
  endfacet
  facet normal 0 -1 0
    outer loop
      vertex -45.3492 26.375 -12
      vertex -56.821 26.375 -0.675713
      vertex -57.031 26.375 -1.32189
    endloop
  endfacet
  facet normal 0 -1 0
    outer loop
      vertex -45.3492 26.375 -12
      vertex -57.031 26.375 -1.32189
      vertex -57.3707 26.375 -1.9103
    endloop
  endfacet
  facet normal 0 -1 0
    outer loop
      vertex -45.3492 26.375 -12
      vertex -59.6603 26.375 -3.2322
      vertex -70 26.375 -12
    endloop
  endfacet
  facet normal 0 -1 0
    outer loop
      vertex -59.6603 26.375 -3.2322
      vertex -45.3492 26.375 -12
      vertex -58.9957 26.375 -3.09093
    endloop
  endfacet
  facet normal 0 -1 0
    outer loop
      vertex -58.9957 26.375 -3.09093
      vertex -45.3492 26.375 -12
      vertex -58.375 26.375 -2.81458
    endloop
  endfacet
  facet normal 0 -1 0
    outer loop
      vertex -56.75 26.375 0
      vertex -45.3492 26.375 -12
      vertex -45.3492 26.375 12
    endloop
  endfacet
  facet normal 0 -1 0
    outer loop
      vertex -57.8253 26.375 -2.41522
      vertex -45.3492 26.375 -12
      vertex -57.3707 26.375 -1.9103
    endloop
  endfacet
  facet normal 0 -1 0
    outer loop
      vertex -58.375 26.375 -2.81458
      vertex -45.3492 26.375 -12
      vertex -57.8253 26.375 -2.41522
    endloop
  endfacet
  facet normal 0 -1 0
    outer loop
      vertex 45.3492 26.375 12
      vertex 59.6603 26.375 3.2322
      vertex 70 26.375 12
    endloop
  endfacet
  facet normal 0 -1 0
    outer loop
      vertex 45.3492 26.375 12
      vertex 58.9957 26.375 3.09093
      vertex 59.6603 26.375 3.2322
    endloop
  endfacet
  facet normal 0 -1 0
    outer loop
      vertex 45.3492 26.375 12
      vertex 58.375 26.375 2.81458
      vertex 58.9957 26.375 3.09093
    endloop
  endfacet
  facet normal 0 -1 0
    outer loop
      vertex 45.3492 26.375 12
      vertex 57.8253 26.375 2.41522
      vertex 58.375 26.375 2.81458
    endloop
  endfacet
  facet normal 0 -1 0
    outer loop
      vertex 45.3492 26.375 12
      vertex 57.3707 26.375 1.9103
      vertex 57.8253 26.375 2.41522
    endloop
  endfacet
  facet normal 0 -1 0
    outer loop
      vertex 45.3492 26.375 12
      vertex 57.031 26.375 1.32189
      vertex 57.3707 26.375 1.9103
    endloop
  endfacet
  facet normal 0 -1 0
    outer loop
      vertex 45.3492 26.375 12
      vertex 56.821 26.375 0.675713
      vertex 57.031 26.375 1.32189
    endloop
  endfacet
  facet normal 0 -1 0
    outer loop
      vertex 45.3492 26.375 12
      vertex 56.75 26.375 0
      vertex 56.821 26.375 0.675713
    endloop
  endfacet
  facet normal 0 -1 0
    outer loop
      vertex 45.3492 26.375 -12
      vertex 56.75 26.375 0
      vertex 45.3492 26.375 12
    endloop
  endfacet
  facet normal 0 -1 -0
    outer loop
      vertex 56.75 26.375 0
      vertex 45.3492 26.375 -12
      vertex 56.821 26.375 -0.675713
    endloop
  endfacet
  facet normal 0 -1 -0
    outer loop
      vertex 56.821 26.375 -0.675713
      vertex 45.3492 26.375 -12
      vertex 57.031 26.375 -1.32189
    endloop
  endfacet
  facet normal 0 -1 0
    outer loop
      vertex 70 26.375 -12
      vertex 59.6603 26.375 -3.2322
      vertex 45.3492 26.375 -12
    endloop
  endfacet
  facet normal 0 -1 -0
    outer loop
      vertex 58.9957 26.375 -3.09093
      vertex 45.3492 26.375 -12
      vertex 59.6603 26.375 -3.2322
    endloop
  endfacet
  facet normal 0 -1 -0
    outer loop
      vertex 58.375 26.375 -2.81458
      vertex 45.3492 26.375 -12
      vertex 58.9957 26.375 -3.09093
    endloop
  endfacet
  facet normal 0 -1 -0
    outer loop
      vertex 57.8253 26.375 -2.41522
      vertex 45.3492 26.375 -12
      vertex 58.375 26.375 -2.81458
    endloop
  endfacet
  facet normal 0 -1 -0
    outer loop
      vertex 57.3707 26.375 -1.9103
      vertex 45.3492 26.375 -12
      vertex 57.8253 26.375 -2.41522
    endloop
  endfacet
  facet normal 0 -1 -0
    outer loop
      vertex 57.031 26.375 -1.32189
      vertex 45.3492 26.375 -12
      vertex 57.3707 26.375 -1.9103
    endloop
  endfacet
  facet normal 0 -1 0
    outer loop
      vertex 60.3397 26.375 3.2322
      vertex 70 26.375 12
      vertex 59.6603 26.375 3.2322
    endloop
  endfacet
  facet normal 0 -1 0
    outer loop
      vertex 61.0043 26.375 3.09093
      vertex 70 26.375 12
      vertex 60.3397 26.375 3.2322
    endloop
  endfacet
  facet normal 0 -1 0
    outer loop
      vertex 61.625 26.375 2.81458
      vertex 70 26.375 12
      vertex 61.0043 26.375 3.09093
    endloop
  endfacet
  facet normal 0 -1 0
    outer loop
      vertex 62.1747 26.375 2.41522
      vertex 70 26.375 12
      vertex 61.625 26.375 2.81458
    endloop
  endfacet
  facet normal 0 -1 0
    outer loop
      vertex 62.6293 26.375 1.9103
      vertex 70 26.375 12
      vertex 62.1747 26.375 2.41522
    endloop
  endfacet
  facet normal 0 -1 0
    outer loop
      vertex 62.969 26.375 1.32189
      vertex 70 26.375 12
      vertex 62.6293 26.375 1.9103
    endloop
  endfacet
  facet normal 0 -1 0
    outer loop
      vertex 63.179 26.375 0.675713
      vertex 70 26.375 12
      vertex 62.969 26.375 1.32189
    endloop
  endfacet
  facet normal 0 -1 0
    outer loop
      vertex 63.25 26.375 0
      vertex 70 26.375 12
      vertex 63.179 26.375 0.675713
    endloop
  endfacet
  facet normal 0 -1 0
    outer loop
      vertex 70 26.375 -12
      vertex 63.25 26.375 0
      vertex 63.179 26.375 -0.675713
    endloop
  endfacet
  facet normal 0 -1 0
    outer loop
      vertex 70 26.375 -12
      vertex 63.179 26.375 -0.675713
      vertex 62.969 26.375 -1.32189
    endloop
  endfacet
  facet normal 0 -1 0
    outer loop
      vertex 59.6603 26.375 -3.2322
      vertex 70 26.375 -12
      vertex 60.3397 26.375 -3.2322
    endloop
  endfacet
  facet normal 0 -1 0
    outer loop
      vertex 60.3397 26.375 -3.2322
      vertex 70 26.375 -12
      vertex 61.0043 26.375 -3.09093
    endloop
  endfacet
  facet normal 0 -1 0
    outer loop
      vertex 63.25 26.375 0
      vertex 70 26.375 -12
      vertex 70 26.375 12
    endloop
  endfacet
  facet normal 0 -1 0
    outer loop
      vertex 62.6293 26.375 -1.9103
      vertex 70 26.375 -12
      vertex 62.969 26.375 -1.32189
    endloop
  endfacet
  facet normal 0 -1 0
    outer loop
      vertex 62.1747 26.375 -2.41522
      vertex 70 26.375 -12
      vertex 62.6293 26.375 -1.9103
    endloop
  endfacet
  facet normal 0 -1 0
    outer loop
      vertex 61.625 26.375 -2.81458
      vertex 70 26.375 -12
      vertex 62.1747 26.375 -2.41522
    endloop
  endfacet
  facet normal 0 -1 0
    outer loop
      vertex 61.0043 26.375 -3.09093
      vertex 70 26.375 -12
      vertex 61.625 26.375 -2.81458
    endloop
  endfacet
  facet normal -0.86602 -0.500009 0
    outer loop
      vertex 45.3492 26.375 -12
      vertex 42.6756 31.0057 12
      vertex 42.6756 31.0057 -12
    endloop
  endfacet
  facet normal -0.86602 -0.500009 0
    outer loop
      vertex 42.6756 31.0057 12
      vertex 45.3492 26.375 -12
      vertex 45.3492 26.375 12
    endloop
  endfacet
  facet normal 0.406736 -0.913546 0
    outer loop
      vertex -26.375 45.6828 -12
      vertex -16.3006 50.1682 12
      vertex -26.375 45.6828 12
    endloop
  endfacet
  facet normal 0.406736 -0.913546 0
    outer loop
      vertex -16.3006 50.1682 12
      vertex -26.375 45.6828 -12
      vertex -16.3006 50.1682 -12
    endloop
  endfacet
  facet normal -0.406736 -0.913546 0
    outer loop
      vertex 16.3006 50.1682 -12
      vertex 26.375 45.6828 12
      vertex 16.3006 50.1682 12
    endloop
  endfacet
  facet normal -0.406736 -0.913546 -0
    outer loop
      vertex 26.375 45.6828 12
      vertex 16.3006 50.1682 -12
      vertex 26.375 45.6828 -12
    endloop
  endfacet
  facet normal 0.743144 -0.669131 0
    outer loop
      vertex -42.6756 31.0057 12
      vertex -35.2966 39.2009 -12
      vertex -35.2966 39.2009 12
    endloop
  endfacet
  facet normal 0.743144 -0.669131 0
    outer loop
      vertex -35.2966 39.2009 -12
      vertex -42.6756 31.0057 12
      vertex -42.6756 31.0057 -12
    endloop
  endfacet
  facet normal 0.86602 -0.500009 0
    outer loop
      vertex -45.3492 26.375 12
      vertex -42.6756 31.0057 -12
      vertex -42.6756 31.0057 12
    endloop
  endfacet
  facet normal 0.86602 -0.500009 0
    outer loop
      vertex -42.6756 31.0057 -12
      vertex -45.3492 26.375 12
      vertex -45.3492 26.375 -12
    endloop
  endfacet
  facet normal 0.587784 -0.809018 0
    outer loop
      vertex -35.2966 39.2009 -12
      vertex -26.375 45.6828 12
      vertex -35.2966 39.2009 12
    endloop
  endfacet
  facet normal 0.587784 -0.809018 0
    outer loop
      vertex -26.375 45.6828 12
      vertex -35.2966 39.2009 -12
      vertex -26.375 45.6828 -12
    endloop
  endfacet
  facet normal 0 -1 0
    outer loop
      vertex -5.51388 52.461 -12
      vertex 5.51388 52.461 12
      vertex -5.51388 52.461 12
    endloop
  endfacet
  facet normal 0 -1 -0
    outer loop
      vertex 5.51388 52.461 12
      vertex -5.51388 52.461 -12
      vertex 5.51388 52.461 -12
    endloop
  endfacet
  facet normal -0.743144 -0.669131 0
    outer loop
      vertex 42.6756 31.0057 -12
      vertex 35.2966 39.2009 12
      vertex 35.2966 39.2009 -12
    endloop
  endfacet
  facet normal -0.743144 -0.669131 0
    outer loop
      vertex 35.2966 39.2009 12
      vertex 42.6756 31.0057 -12
      vertex 42.6756 31.0057 12
    endloop
  endfacet
  facet normal 0.207913 -0.978147 0
    outer loop
      vertex -16.3006 50.1682 -12
      vertex -5.51388 52.461 12
      vertex -16.3006 50.1682 12
    endloop
  endfacet
  facet normal 0.207913 -0.978147 0
    outer loop
      vertex -5.51388 52.461 12
      vertex -16.3006 50.1682 -12
      vertex -5.51388 52.461 -12
    endloop
  endfacet
  facet normal -0.587784 -0.809018 0
    outer loop
      vertex 26.375 45.6828 -12
      vertex 35.2966 39.2009 12
      vertex 26.375 45.6828 12
    endloop
  endfacet
  facet normal -0.587784 -0.809018 -0
    outer loop
      vertex 35.2966 39.2009 12
      vertex 26.375 45.6828 -12
      vertex 35.2966 39.2009 -12
    endloop
  endfacet
  facet normal -0.207913 -0.978147 0
    outer loop
      vertex 5.51388 52.461 -12
      vertex 16.3006 50.1682 12
      vertex 5.51388 52.461 12
    endloop
  endfacet
  facet normal -0.207913 -0.978147 -0
    outer loop
      vertex 16.3006 50.1682 12
      vertex 5.51388 52.461 -12
      vertex 16.3006 50.1682 -12
    endloop
  endfacet
  facet normal -0.994525 0 0.104499
    outer loop
      vertex 63.179 26.375 -0.675713
      vertex 63.25 28.875 0
      vertex 63.179 28.875 -0.675713
    endloop
  endfacet
  facet normal -0.994525 0 0.104499
    outer loop
      vertex 63.25 28.875 0
      vertex 63.179 26.375 -0.675713
      vertex 63.25 26.375 0
    endloop
  endfacet
  facet normal -0.951037 0 -0.309076
    outer loop
      vertex 63.179 26.375 0.675713
      vertex 62.969 28.875 1.32189
      vertex 63.179 28.875 0.675713
    endloop
  endfacet
  facet normal -0.951037 -0 -0.309076
    outer loop
      vertex 62.969 28.875 1.32189
      vertex 63.179 26.375 0.675713
      vertex 62.969 26.375 1.32189
    endloop
  endfacet
  facet normal -0.994525 0 -0.104499
    outer loop
      vertex 63.25 26.375 0
      vertex 63.179 28.875 0.675713
      vertex 63.25 28.875 0
    endloop
  endfacet
  facet normal -0.994525 -0 -0.104499
    outer loop
      vertex 63.179 28.875 0.675713
      vertex 63.25 26.375 0
      vertex 63.179 26.375 0.675713
    endloop
  endfacet
  facet normal 0.743168 0 -0.669105
    outer loop
      vertex 57.8253 26.375 2.41522
      vertex 57.3707 28.875 1.9103
      vertex 57.8253 28.875 2.41522
    endloop
  endfacet
  facet normal 0.743168 0 -0.669105
    outer loop
      vertex 57.3707 28.875 1.9103
      vertex 57.8253 26.375 2.41522
      vertex 57.3707 26.375 1.9103
    endloop
  endfacet
  facet normal -0.587766 0 0.809031
    outer loop
      vertex 61.625 28.875 -2.81458
      vertex 62.1747 26.375 -2.41522
      vertex 62.1747 28.875 -2.41522
    endloop
  endfacet
  facet normal -0.587766 0 0.809031
    outer loop
      vertex 62.1747 26.375 -2.41522
      vertex 61.625 28.875 -2.81458
      vertex 61.625 26.375 -2.81458
    endloop
  endfacet
  facet normal -0.866037 0 -0.499979
    outer loop
      vertex 62.969 26.375 1.32189
      vertex 62.6293 28.875 1.9103
      vertex 62.969 28.875 1.32189
    endloop
  endfacet
  facet normal -0.866037 -0 -0.499979
    outer loop
      vertex 62.6293 28.875 1.9103
      vertex 62.969 26.375 1.32189
      vertex 62.6293 26.375 1.9103
    endloop
  endfacet
  facet normal 0.951037 -0 0.309076
    outer loop
      vertex 56.821 26.375 -0.675713
      vertex 57.031 28.875 -1.32189
      vertex 56.821 28.875 -0.675713
    endloop
  endfacet
  facet normal 0.951037 0 0.309076
    outer loop
      vertex 57.031 28.875 -1.32189
      vertex 56.821 26.375 -0.675713
      vertex 57.031 26.375 -1.32189
    endloop
  endfacet
  facet normal 0.406732 0 -0.913547
    outer loop
      vertex 58.375 26.375 2.81458
      vertex 58.9957 28.875 3.09093
      vertex 58.9957 26.375 3.09093
    endloop
  endfacet
  facet normal 0.406732 0 -0.913547
    outer loop
      vertex 58.9957 28.875 3.09093
      vertex 58.375 26.375 2.81458
      vertex 58.375 28.875 2.81458
    endloop
  endfacet
  facet normal -0.743168 0 -0.669105
    outer loop
      vertex 62.6293 26.375 1.9103
      vertex 62.1747 28.875 2.41522
      vertex 62.6293 28.875 1.9103
    endloop
  endfacet
  facet normal -0.743168 -0 -0.669105
    outer loop
      vertex 62.1747 28.875 2.41522
      vertex 62.6293 26.375 1.9103
      vertex 62.1747 26.375 2.41522
    endloop
  endfacet
  facet normal 0.587766 0 -0.809031
    outer loop
      vertex 57.8253 26.375 2.41522
      vertex 58.375 28.875 2.81458
      vertex 58.375 26.375 2.81458
    endloop
  endfacet
  facet normal 0.587766 0 -0.809031
    outer loop
      vertex 58.375 28.875 2.81458
      vertex 57.8253 26.375 2.41522
      vertex 57.8253 28.875 2.41522
    endloop
  endfacet
  facet normal 0.207919 0 -0.978146
    outer loop
      vertex 58.9957 26.375 3.09093
      vertex 59.6603 28.875 3.2322
      vertex 59.6603 26.375 3.2322
    endloop
  endfacet
  facet normal 0.207919 0 -0.978146
    outer loop
      vertex 59.6603 28.875 3.2322
      vertex 58.9957 26.375 3.09093
      vertex 58.9957 28.875 3.09093
    endloop
  endfacet
  facet normal 0.994525 0 -0.104499
    outer loop
      vertex 56.821 26.375 0.675713
      vertex 56.75 28.875 0
      vertex 56.821 28.875 0.675713
    endloop
  endfacet
  facet normal 0.994525 0 -0.104499
    outer loop
      vertex 56.75 28.875 0
      vertex 56.821 26.375 0.675713
      vertex 56.75 26.375 0
    endloop
  endfacet
  facet normal 0.743168 -0 0.669105
    outer loop
      vertex 57.3707 26.375 -1.9103
      vertex 57.8253 28.875 -2.41522
      vertex 57.3707 28.875 -1.9103
    endloop
  endfacet
  facet normal 0.743168 0 0.669105
    outer loop
      vertex 57.8253 28.875 -2.41522
      vertex 57.3707 26.375 -1.9103
      vertex 57.8253 26.375 -2.41522
    endloop
  endfacet
  facet normal 0.587766 0 0.809031
    outer loop
      vertex 57.8253 28.875 -2.41522
      vertex 58.375 26.375 -2.81458
      vertex 58.375 28.875 -2.81458
    endloop
  endfacet
  facet normal 0.587766 0 0.809031
    outer loop
      vertex 58.375 26.375 -2.81458
      vertex 57.8253 28.875 -2.41522
      vertex 57.8253 26.375 -2.41522
    endloop
  endfacet
  facet normal -0.743168 0 0.669105
    outer loop
      vertex 62.1747 26.375 -2.41522
      vertex 62.6293 28.875 -1.9103
      vertex 62.1747 28.875 -2.41522
    endloop
  endfacet
  facet normal -0.743168 0 0.669105
    outer loop
      vertex 62.6293 28.875 -1.9103
      vertex 62.1747 26.375 -2.41522
      vertex 62.6293 26.375 -1.9103
    endloop
  endfacet
  facet normal -0.207919 0 0.978146
    outer loop
      vertex 60.3397 28.875 -3.2322
      vertex 61.0043 26.375 -3.09093
      vertex 61.0043 28.875 -3.09093
    endloop
  endfacet
  facet normal -0.207919 0 0.978146
    outer loop
      vertex 61.0043 26.375 -3.09093
      vertex 60.3397 28.875 -3.2322
      vertex 60.3397 26.375 -3.2322
    endloop
  endfacet
  facet normal -0.866037 0 0.499979
    outer loop
      vertex 62.6293 26.375 -1.9103
      vertex 62.969 28.875 -1.32189
      vertex 62.6293 28.875 -1.9103
    endloop
  endfacet
  facet normal -0.866037 0 0.499979
    outer loop
      vertex 62.969 28.875 -1.32189
      vertex 62.6293 26.375 -1.9103
      vertex 62.969 26.375 -1.32189
    endloop
  endfacet
  facet normal 0 0 -1
    outer loop
      vertex 59.6603 26.375 3.2322
      vertex 60.3397 28.875 3.2322
      vertex 60.3397 26.375 3.2322
    endloop
  endfacet
  facet normal -0 0 -1
    outer loop
      vertex 60.3397 28.875 3.2322
      vertex 59.6603 26.375 3.2322
      vertex 59.6603 28.875 3.2322
    endloop
  endfacet
  facet normal 0.207919 0 0.978146
    outer loop
      vertex 58.9957 28.875 -3.09093
      vertex 59.6603 26.375 -3.2322
      vertex 59.6603 28.875 -3.2322
    endloop
  endfacet
  facet normal 0.207919 0 0.978146
    outer loop
      vertex 59.6603 26.375 -3.2322
      vertex 58.9957 28.875 -3.09093
      vertex 58.9957 26.375 -3.09093
    endloop
  endfacet
  facet normal -0.406732 0 -0.913547
    outer loop
      vertex 61.0043 26.375 3.09093
      vertex 61.625 28.875 2.81458
      vertex 61.625 26.375 2.81458
    endloop
  endfacet
  facet normal -0.406732 0 -0.913547
    outer loop
      vertex 61.625 28.875 2.81458
      vertex 61.0043 26.375 3.09093
      vertex 61.0043 28.875 3.09093
    endloop
  endfacet
  facet normal -0.406732 0 0.913547
    outer loop
      vertex 61.0043 28.875 -3.09093
      vertex 61.625 26.375 -2.81458
      vertex 61.625 28.875 -2.81458
    endloop
  endfacet
  facet normal -0.406732 0 0.913547
    outer loop
      vertex 61.625 26.375 -2.81458
      vertex 61.0043 28.875 -3.09093
      vertex 61.0043 26.375 -3.09093
    endloop
  endfacet
  facet normal -0.587766 0 -0.809031
    outer loop
      vertex 61.625 26.375 2.81458
      vertex 62.1747 28.875 2.41522
      vertex 62.1747 26.375 2.41522
    endloop
  endfacet
  facet normal -0.587766 0 -0.809031
    outer loop
      vertex 62.1747 28.875 2.41522
      vertex 61.625 26.375 2.81458
      vertex 61.625 28.875 2.81458
    endloop
  endfacet
  facet normal -0.951037 0 0.309076
    outer loop
      vertex 62.969 26.375 -1.32189
      vertex 63.179 28.875 -0.675713
      vertex 62.969 28.875 -1.32189
    endloop
  endfacet
  facet normal -0.951037 0 0.309076
    outer loop
      vertex 63.179 28.875 -0.675713
      vertex 62.969 26.375 -1.32189
      vertex 63.179 26.375 -0.675713
    endloop
  endfacet
  facet normal 0.866037 0 -0.499979
    outer loop
      vertex 57.3707 26.375 1.9103
      vertex 57.031 28.875 1.32189
      vertex 57.3707 28.875 1.9103
    endloop
  endfacet
  facet normal 0.866037 0 -0.499979
    outer loop
      vertex 57.031 28.875 1.32189
      vertex 57.3707 26.375 1.9103
      vertex 57.031 26.375 1.32189
    endloop
  endfacet
  facet normal -0.207919 0 -0.978146
    outer loop
      vertex 60.3397 26.375 3.2322
      vertex 61.0043 28.875 3.09093
      vertex 61.0043 26.375 3.09093
    endloop
  endfacet
  facet normal -0.207919 0 -0.978146
    outer loop
      vertex 61.0043 28.875 3.09093
      vertex 60.3397 26.375 3.2322
      vertex 60.3397 28.875 3.2322
    endloop
  endfacet
  facet normal 0.406732 0 0.913547
    outer loop
      vertex 58.375 28.875 -2.81458
      vertex 58.9957 26.375 -3.09093
      vertex 58.9957 28.875 -3.09093
    endloop
  endfacet
  facet normal 0.406732 0 0.913547
    outer loop
      vertex 58.9957 26.375 -3.09093
      vertex 58.375 28.875 -2.81458
      vertex 58.375 26.375 -2.81458
    endloop
  endfacet
  facet normal 0.951037 0 -0.309076
    outer loop
      vertex 57.031 26.375 1.32189
      vertex 56.821 28.875 0.675713
      vertex 57.031 28.875 1.32189
    endloop
  endfacet
  facet normal 0.951037 0 -0.309076
    outer loop
      vertex 56.821 28.875 0.675713
      vertex 57.031 26.375 1.32189
      vertex 56.821 26.375 0.675713
    endloop
  endfacet
  facet normal 0.866037 -0 0.499979
    outer loop
      vertex 57.031 26.375 -1.32189
      vertex 57.3707 28.875 -1.9103
      vertex 57.031 28.875 -1.32189
    endloop
  endfacet
  facet normal 0.866037 0 0.499979
    outer loop
      vertex 57.3707 28.875 -1.9103
      vertex 57.031 26.375 -1.32189
      vertex 57.3707 26.375 -1.9103
    endloop
  endfacet
  facet normal -0 0 1
    outer loop
      vertex 59.6603 28.875 -3.2322
      vertex 60.3397 26.375 -3.2322
      vertex 60.3397 28.875 -3.2322
    endloop
  endfacet
  facet normal 0 0 1
    outer loop
      vertex 60.3397 26.375 -3.2322
      vertex 59.6603 28.875 -3.2322
      vertex 59.6603 26.375 -3.2322
    endloop
  endfacet
  facet normal 0.994525 -0 0.104499
    outer loop
      vertex 56.75 26.375 0
      vertex 56.821 28.875 -0.675713
      vertex 56.75 28.875 0
    endloop
  endfacet
  facet normal 0.994525 0 0.104499
    outer loop
      vertex 56.821 28.875 -0.675713
      vertex 56.75 26.375 0
      vertex 56.821 26.375 -0.675713
    endloop
  endfacet
  facet normal 0.743168 0 -0.669105
    outer loop
      vertex -62.1747 26.375 2.41522
      vertex -62.6293 28.875 1.9103
      vertex -62.1747 28.875 2.41522
    endloop
  endfacet
  facet normal 0.743168 0 -0.669105
    outer loop
      vertex -62.6293 28.875 1.9103
      vertex -62.1747 26.375 2.41522
      vertex -62.6293 26.375 1.9103
    endloop
  endfacet
  facet normal -0.951037 0 -0.309076
    outer loop
      vertex -56.821 26.375 0.675713
      vertex -57.031 28.875 1.32189
      vertex -56.821 28.875 0.675713
    endloop
  endfacet
  facet normal -0.951037 -0 -0.309076
    outer loop
      vertex -57.031 28.875 1.32189
      vertex -56.821 26.375 0.675713
      vertex -57.031 26.375 1.32189
    endloop
  endfacet
  facet normal -0.994525 0 -0.104499
    outer loop
      vertex -56.75 26.375 0
      vertex -56.821 28.875 0.675713
      vertex -56.75 28.875 0
    endloop
  endfacet
  facet normal -0.994525 -0 -0.104499
    outer loop
      vertex -56.821 28.875 0.675713
      vertex -56.75 26.375 0
      vertex -56.821 26.375 0.675713
    endloop
  endfacet
  facet normal -0.587766 0 -0.809031
    outer loop
      vertex -58.375 26.375 2.81458
      vertex -57.8253 28.875 2.41522
      vertex -57.8253 26.375 2.41522
    endloop
  endfacet
  facet normal -0.587766 0 -0.809031
    outer loop
      vertex -57.8253 28.875 2.41522
      vertex -58.375 26.375 2.81458
      vertex -58.375 28.875 2.81458
    endloop
  endfacet
  facet normal 0.587766 0 -0.809031
    outer loop
      vertex -62.1747 26.375 2.41522
      vertex -61.625 28.875 2.81458
      vertex -61.625 26.375 2.81458
    endloop
  endfacet
  facet normal 0.587766 0 -0.809031
    outer loop
      vertex -61.625 28.875 2.81458
      vertex -62.1747 26.375 2.41522
      vertex -62.1747 28.875 2.41522
    endloop
  endfacet
  facet normal 0.951037 -0 0.309076
    outer loop
      vertex -63.179 26.375 -0.675713
      vertex -62.969 28.875 -1.32189
      vertex -63.179 28.875 -0.675713
    endloop
  endfacet
  facet normal 0.951037 0 0.309076
    outer loop
      vertex -62.969 28.875 -1.32189
      vertex -63.179 26.375 -0.675713
      vertex -62.969 26.375 -1.32189
    endloop
  endfacet
  facet normal 0.951037 0 -0.309076
    outer loop
      vertex -62.969 26.375 1.32189
      vertex -63.179 28.875 0.675713
      vertex -62.969 28.875 1.32189
    endloop
  endfacet
  facet normal 0.951037 0 -0.309076
    outer loop
      vertex -63.179 28.875 0.675713
      vertex -62.969 26.375 1.32189
      vertex -63.179 26.375 0.675713
    endloop
  endfacet
  facet normal -0.866037 0 -0.499979
    outer loop
      vertex -57.031 26.375 1.32189
      vertex -57.3707 28.875 1.9103
      vertex -57.031 28.875 1.32189
    endloop
  endfacet
  facet normal -0.866037 -0 -0.499979
    outer loop
      vertex -57.3707 28.875 1.9103
      vertex -57.031 26.375 1.32189
      vertex -57.3707 26.375 1.9103
    endloop
  endfacet
  facet normal 0.406732 0 0.913547
    outer loop
      vertex -61.625 28.875 -2.81458
      vertex -61.0043 26.375 -3.09093
      vertex -61.0043 28.875 -3.09093
    endloop
  endfacet
  facet normal 0.406732 0 0.913547
    outer loop
      vertex -61.0043 26.375 -3.09093
      vertex -61.625 28.875 -2.81458
      vertex -61.625 26.375 -2.81458
    endloop
  endfacet
  facet normal -0.743168 0 -0.669105
    outer loop
      vertex -57.3707 26.375 1.9103
      vertex -57.8253 28.875 2.41522
      vertex -57.3707 28.875 1.9103
    endloop
  endfacet
  facet normal -0.743168 -0 -0.669105
    outer loop
      vertex -57.8253 28.875 2.41522
      vertex -57.3707 26.375 1.9103
      vertex -57.8253 26.375 2.41522
    endloop
  endfacet
  facet normal 0.994525 -0 0.104499
    outer loop
      vertex -63.25 26.375 0
      vertex -63.179 28.875 -0.675713
      vertex -63.25 28.875 0
    endloop
  endfacet
  facet normal 0.994525 0 0.104499
    outer loop
      vertex -63.179 28.875 -0.675713
      vertex -63.25 26.375 0
      vertex -63.179 26.375 -0.675713
    endloop
  endfacet
  facet normal 0.207919 0 0.978146
    outer loop
      vertex -61.0043 28.875 -3.09093
      vertex -60.3397 26.375 -3.2322
      vertex -60.3397 28.875 -3.2322
    endloop
  endfacet
  facet normal 0.207919 0 0.978146
    outer loop
      vertex -60.3397 26.375 -3.2322
      vertex -61.0043 28.875 -3.09093
      vertex -61.0043 26.375 -3.09093
    endloop
  endfacet
  facet normal 0.207919 0 -0.978146
    outer loop
      vertex -61.0043 26.375 3.09093
      vertex -60.3397 28.875 3.2322
      vertex -60.3397 26.375 3.2322
    endloop
  endfacet
  facet normal 0.207919 0 -0.978146
    outer loop
      vertex -60.3397 28.875 3.2322
      vertex -61.0043 26.375 3.09093
      vertex -61.0043 28.875 3.09093
    endloop
  endfacet
  facet normal -0.587766 0 0.809031
    outer loop
      vertex -58.375 28.875 -2.81458
      vertex -57.8253 26.375 -2.41522
      vertex -57.8253 28.875 -2.41522
    endloop
  endfacet
  facet normal -0.587766 0 0.809031
    outer loop
      vertex -57.8253 26.375 -2.41522
      vertex -58.375 28.875 -2.81458
      vertex -58.375 26.375 -2.81458
    endloop
  endfacet
  facet normal -0.994525 0 0.104499
    outer loop
      vertex -56.821 26.375 -0.675713
      vertex -56.75 28.875 0
      vertex -56.821 28.875 -0.675713
    endloop
  endfacet
  facet normal -0.994525 0 0.104499
    outer loop
      vertex -56.75 28.875 0
      vertex -56.821 26.375 -0.675713
      vertex -56.75 26.375 0
    endloop
  endfacet
  facet normal -0.207919 0 -0.978146
    outer loop
      vertex -59.6603 26.375 3.2322
      vertex -58.9957 28.875 3.09093
      vertex -58.9957 26.375 3.09093
    endloop
  endfacet
  facet normal -0.207919 0 -0.978146
    outer loop
      vertex -58.9957 28.875 3.09093
      vertex -59.6603 26.375 3.2322
      vertex -59.6603 28.875 3.2322
    endloop
  endfacet
  facet normal -0.743168 0 0.669105
    outer loop
      vertex -57.8253 26.375 -2.41522
      vertex -57.3707 28.875 -1.9103
      vertex -57.8253 28.875 -2.41522
    endloop
  endfacet
  facet normal -0.743168 0 0.669105
    outer loop
      vertex -57.3707 28.875 -1.9103
      vertex -57.8253 26.375 -2.41522
      vertex -57.3707 26.375 -1.9103
    endloop
  endfacet
  facet normal -0.406732 0 0.913547
    outer loop
      vertex -58.9957 28.875 -3.09093
      vertex -58.375 26.375 -2.81458
      vertex -58.375 28.875 -2.81458
    endloop
  endfacet
  facet normal -0.406732 0 0.913547
    outer loop
      vertex -58.375 26.375 -2.81458
      vertex -58.9957 28.875 -3.09093
      vertex -58.9957 26.375 -3.09093
    endloop
  endfacet
  facet normal -0.866037 0 0.499979
    outer loop
      vertex -57.3707 26.375 -1.9103
      vertex -57.031 28.875 -1.32189
      vertex -57.3707 28.875 -1.9103
    endloop
  endfacet
  facet normal -0.866037 0 0.499979
    outer loop
      vertex -57.031 28.875 -1.32189
      vertex -57.3707 26.375 -1.9103
      vertex -57.031 26.375 -1.32189
    endloop
  endfacet
  facet normal -0.951037 0 0.309076
    outer loop
      vertex -57.031 26.375 -1.32189
      vertex -56.821 28.875 -0.675713
      vertex -57.031 28.875 -1.32189
    endloop
  endfacet
  facet normal -0.951037 0 0.309076
    outer loop
      vertex -56.821 28.875 -0.675713
      vertex -57.031 26.375 -1.32189
      vertex -56.821 26.375 -0.675713
    endloop
  endfacet
  facet normal 0.406732 0 -0.913547
    outer loop
      vertex -61.625 26.375 2.81458
      vertex -61.0043 28.875 3.09093
      vertex -61.0043 26.375 3.09093
    endloop
  endfacet
  facet normal 0.406732 0 -0.913547
    outer loop
      vertex -61.0043 28.875 3.09093
      vertex -61.625 26.375 2.81458
      vertex -61.625 28.875 2.81458
    endloop
  endfacet
  facet normal -0.406732 0 -0.913547
    outer loop
      vertex -58.9957 26.375 3.09093
      vertex -58.375 28.875 2.81458
      vertex -58.375 26.375 2.81458
    endloop
  endfacet
  facet normal -0.406732 0 -0.913547
    outer loop
      vertex -58.375 28.875 2.81458
      vertex -58.9957 26.375 3.09093
      vertex -58.9957 28.875 3.09093
    endloop
  endfacet
  facet normal -0.207919 0 0.978146
    outer loop
      vertex -59.6603 28.875 -3.2322
      vertex -58.9957 26.375 -3.09093
      vertex -58.9957 28.875 -3.09093
    endloop
  endfacet
  facet normal -0.207919 0 0.978146
    outer loop
      vertex -58.9957 26.375 -3.09093
      vertex -59.6603 28.875 -3.2322
      vertex -59.6603 26.375 -3.2322
    endloop
  endfacet
  facet normal -0 0 1
    outer loop
      vertex -60.3397 28.875 -3.2322
      vertex -59.6603 26.375 -3.2322
      vertex -59.6603 28.875 -3.2322
    endloop
  endfacet
  facet normal 0 0 1
    outer loop
      vertex -59.6603 26.375 -3.2322
      vertex -60.3397 28.875 -3.2322
      vertex -60.3397 26.375 -3.2322
    endloop
  endfacet
  facet normal 0.587766 0 0.809031
    outer loop
      vertex -62.1747 28.875 -2.41522
      vertex -61.625 26.375 -2.81458
      vertex -61.625 28.875 -2.81458
    endloop
  endfacet
  facet normal 0.587766 0 0.809031
    outer loop
      vertex -61.625 26.375 -2.81458
      vertex -62.1747 28.875 -2.41522
      vertex -62.1747 26.375 -2.41522
    endloop
  endfacet
  facet normal 0.866037 -0 0.499979
    outer loop
      vertex -62.969 26.375 -1.32189
      vertex -62.6293 28.875 -1.9103
      vertex -62.969 28.875 -1.32189
    endloop
  endfacet
  facet normal 0.866037 0 0.499979
    outer loop
      vertex -62.6293 28.875 -1.9103
      vertex -62.969 26.375 -1.32189
      vertex -62.6293 26.375 -1.9103
    endloop
  endfacet
  facet normal 0.743168 -0 0.669105
    outer loop
      vertex -62.6293 26.375 -1.9103
      vertex -62.1747 28.875 -2.41522
      vertex -62.6293 28.875 -1.9103
    endloop
  endfacet
  facet normal 0.743168 0 0.669105
    outer loop
      vertex -62.1747 28.875 -2.41522
      vertex -62.6293 26.375 -1.9103
      vertex -62.1747 26.375 -2.41522
    endloop
  endfacet
  facet normal 0.994525 0 -0.104499
    outer loop
      vertex -63.179 26.375 0.675713
      vertex -63.25 28.875 0
      vertex -63.179 28.875 0.675713
    endloop
  endfacet
  facet normal 0.994525 0 -0.104499
    outer loop
      vertex -63.25 28.875 0
      vertex -63.179 26.375 0.675713
      vertex -63.25 26.375 0
    endloop
  endfacet
  facet normal 0 0 -1
    outer loop
      vertex -60.3397 26.375 3.2322
      vertex -59.6603 28.875 3.2322
      vertex -59.6603 26.375 3.2322
    endloop
  endfacet
  facet normal -0 0 -1
    outer loop
      vertex -59.6603 28.875 3.2322
      vertex -60.3397 26.375 3.2322
      vertex -60.3397 28.875 3.2322
    endloop
  endfacet
  facet normal 0.866037 0 -0.499979
    outer loop
      vertex -62.6293 26.375 1.9103
      vertex -62.969 28.875 1.32189
      vertex -62.6293 28.875 1.9103
    endloop
  endfacet
  facet normal 0.866037 0 -0.499979
    outer loop
      vertex -62.969 28.875 1.32189
      vertex -62.6293 26.375 1.9103
      vertex -62.969 26.375 1.32189
    endloop
  endfacet
endsolid OpenSCAD_Model
